C:\Users\nbianco\repos\ankle-perturb-sim\results\experiments\subject18\walk2\expdata\ground_reaction_unfiltered.mot
version=1
nRows=66
nColumns=19
inDegrees=no
endheader
time	ground_force_r_vx	ground_force_r_vy	ground_force_r_vz	ground_force_r_px	ground_force_r_py	ground_force_r_pz	ground_force_l_vx	ground_force_l_vy	ground_force_l_vz	ground_force_l_px	ground_force_l_py	ground_force_l_pz	ground_torque_r_x	ground_torque_r_y	ground_torque_r_z	ground_torque_l_x	ground_torque_l_y	ground_torque_l_z
2.650000	-59.981589	654.406423	-41.578952	0.860134	0.000000	-0.393020	-0.000229	0.003222	0.000402	0.000041	0.000000	-0.000039	0.000000	-0.135823	-0.000000	0.000000	0.000000	0.000000
2.651042	-59.660344	653.536191	-41.485415	0.859397	0.000000	-0.393042	-0.000418	0.003659	0.000480	0.000051	0.000000	-0.000049	0.000000	-0.090814	-0.000000	0.000000	0.000000	0.000000
2.652083	-59.338234	652.617251	-41.385536	0.858665	0.000000	-0.393064	-0.000525	0.003655	0.000496	0.000055	0.000000	-0.000053	0.000000	-0.046737	-0.000000	0.000000	0.000000	0.000000
2.653125	-59.015048	651.650477	-41.281066	0.857939	0.000000	-0.393086	-0.000560	0.003306	0.000461	0.000052	0.000000	-0.000050	0.000000	-0.003634	-0.000000	0.000000	0.000000	0.000000
2.654167	-58.690742	650.636974	-41.173739	0.857219	0.000000	-0.393108	-0.000534	0.002721	0.000391	0.000045	0.000000	-0.000043	0.000000	0.038458	0.000000	0.000000	0.000000	0.000000
2.655208	-58.365448	649.578068	-41.065232	0.856506	0.000000	-0.393130	-0.000463	0.002007	0.000299	0.000035	0.000000	-0.000034	0.000000	0.079502	0.000000	0.000000	0.000000	0.000000
2.656250	-58.039476	648.475291	-40.957138	0.855799	0.000000	-0.393152	-0.000364	0.001260	0.000198	0.000024	0.000000	-0.000024	0.000000	0.119469	0.000000	0.000000	0.000000	0.000000
2.657292	-57.713308	647.330354	-40.850932	0.855098	0.000000	-0.393174	-0.000252	0.000558	0.000101	0.000014	0.000000	-0.000013	0.000000	0.158330	0.000000	0.000000	0.000000	0.000000
2.658333	-57.387589	646.145124	-40.747949	0.854404	0.000000	-0.393195	-0.000141	-0.000044	0.000016	0.000004	0.000000	-0.000004	0.000000	0.196061	0.000000	0.000000	0.000000	0.000000
2.659375	-57.063109	644.921600	-40.649362	0.853717	0.000000	-0.393216	-0.000041	-0.000509	-0.000052	-0.000004	-0.000000	0.000004	0.000000	0.232639	0.000000	0.000000	0.000000	0.000000
2.660417	-56.740779	643.661872	-40.556170	0.853037	0.000000	-0.393236	0.000041	-0.000825	-0.000100	-0.000010	-0.000000	0.000010	0.000000	0.268045	0.000000	0.000000	0.000000	0.000000
2.661458	-56.421606	642.368097	-40.469190	0.852364	0.000000	-0.393255	0.000101	-0.000993	-0.000129	-0.000014	-0.000000	0.000013	0.000000	0.302260	0.000000	0.000000	0.000000	0.000000
2.662500	-56.106662	641.042461	-40.389052	0.851698	0.000000	-0.393272	0.000139	-0.001031	-0.000138	-0.000015	-0.000000	0.000015	0.000000	0.335271	0.000000	0.000000	0.000000	0.000000
2.663542	-55.797050	639.687146	-40.316197	0.851040	0.000000	-0.393288	0.000155	-0.000963	-0.000133	-0.000015	-0.000000	0.000014	0.000000	0.367062	0.000000	0.000000	0.000000	0.000000
2.664583	-55.493872	638.304298	-40.250889	0.850389	0.000000	-0.393301	0.000153	-0.000819	-0.000116	-0.000013	-0.000000	0.000013	0.000000	0.397624	0.000000	0.000000	0.000000	0.000000
2.665625	-55.198191	636.896000	-40.193219	0.849745	0.000000	-0.393313	0.000137	-0.000629	-0.000092	-0.000011	-0.000000	0.000010	0.000000	0.426948	0.000000	0.000000	0.000000	0.000000
2.666667	-54.911004	635.464242	-40.143121	0.849109	0.000000	-0.393321	0.000111	-0.000421	-0.000065	-0.000008	-0.000000	0.000008	0.000000	0.455025	0.000000	0.000000	0.000000	0.000000
2.667708	-54.633207	634.010903	-40.100386	0.848481	0.000000	-0.393327	0.000081	-0.000219	-0.000037	-0.000005	-0.000000	0.000005	0.000000	0.481854	0.000000	0.000000	0.000000	0.000000
2.668750	-54.365571	632.537731	-40.064682	0.847859	0.000000	-0.393330	0.000050	-0.000040	-0.000012	-0.000002	-0.000000	0.000002	0.000000	0.507431	0.000000	0.000000	0.000000	0.000000
2.669792	-54.108718	631.046331	-40.035574	0.847244	0.000000	-0.393329	0.000020	0.000103	0.000009	0.000000	0.000000	-0.000000	0.000000	0.531759	0.000000	0.000000	0.000000	0.000000
2.670833	-53.863103	629.538162	-40.012542	0.846636	0.000000	-0.393325	-0.000004	0.000205	0.000024	0.000002	0.000000	-0.000002	0.000000	0.554842	0.000000	0.000000	0.000000	0.000000
2.671875	-53.629000	628.014534	-39.995007	0.846034	0.000000	-0.393318	-0.000023	0.000265	0.000034	0.000003	0.000000	-0.000003	0.000000	0.576689	0.000000	0.000000	0.000000	0.000000
2.672917	-53.406497	626.476612	-39.982348	0.845437	0.000000	-0.393306	-0.000036	0.000287	0.000038	0.000004	0.000000	-0.000004	0.000000	0.597313	0.000000	0.000000	0.000000	0.000000
2.673958	-53.195494	624.925428	-39.973927	0.844845	0.000000	-0.393291	-0.000042	0.000277	0.000038	0.000004	0.000000	-0.000004	0.000000	0.616730	0.000000	0.000000	0.000000	0.000000
2.675000	-52.995702	623.361895	-39.969103	0.844258	0.000000	-0.393273	-0.000043	0.000243	0.000034	0.000004	0.000000	-0.000004	0.000000	0.634962	0.000000	0.000000	0.000000	0.000000
2.676042	-52.806657	621.786827	-39.967255	0.843675	0.000000	-0.393250	-0.000040	0.000194	0.000028	0.000003	0.000000	-0.000003	0.000000	0.652035	0.000000	0.000000	0.000000	0.000000
2.677083	-52.627730	620.200957	-39.967798	0.843094	0.000000	-0.393224	-0.000034	0.000137	0.000021	0.000002	0.000000	-0.000002	0.000000	0.667982	0.000000	0.000000	0.000000	0.000000
2.678125	-52.458143	618.604962	-39.970191	0.842516	0.000000	-0.393194	-0.000025	0.000079	0.000013	0.000002	0.000000	-0.000002	0.000000	0.682841	0.000000	0.000000	0.000000	0.000000
2.679167	-52.296988	616.999488	-39.973956	0.841939	0.000000	-0.393161	-0.000017	0.000027	0.000006	0.000001	0.000000	-0.000001	0.000000	0.696654	0.000000	0.000000	0.000000	0.000000
2.680208	-52.143253	615.385170	-39.978682	0.841363	0.000000	-0.393124	-0.000008	-0.000016	-0.000001	0.000000	0.000000	-0.000000	0.000000	0.709472	0.000000	0.000000	0.000000	0.000000
2.681250	-51.995839	613.762658	-39.984035	0.840787	0.000000	-0.393084	-0.000001	-0.000049	-0.000005	-0.000000	-0.000000	0.000000	0.000000	0.721351	0.000000	0.000000	0.000000	0.000000
2.682292	-51.853587	612.132638	-39.989757	0.840210	0.000000	-0.393041	0.000005	-0.000069	-0.000009	-0.000001	-0.000000	0.000001	0.000000	0.732351	0.000000	0.000000	0.000000	0.000000
2.683333	-51.715301	610.495845	-39.995670	0.839631	0.000000	-0.392995	0.000009	-0.000079	-0.000010	-0.000001	-0.000000	0.000001	0.000000	0.742543	0.000000	0.000000	0.000000	0.000000
2.684375	-51.579769	608.853078	-40.001674	0.839050	0.000000	-0.392947	0.000011	-0.000079	-0.000011	-0.000001	-0.000000	0.000001	0.000000	0.751999	0.000000	0.000000	0.000000	0.000000
2.685417	-51.445785	607.205213	-40.007741	0.838465	0.000000	-0.392895	0.000012	-0.000072	-0.000010	-0.000001	-0.000000	0.000001	0.000000	0.760799	0.000000	0.000000	0.000000	0.000000
2.686458	-51.312164	605.553207	-40.013910	0.837876	0.000000	-0.392842	0.000012	-0.000059	-0.000008	-0.000001	-0.000000	0.000001	0.000000	0.769029	0.000000	0.000000	0.000000	0.000000
2.687500	-51.177758	603.898098	-40.020280	0.837282	0.000000	-0.392786	0.000010	-0.000044	-0.000006	-0.000001	-0.000000	0.000001	0.000000	0.776780	0.000000	0.000000	0.000000	0.000000
2.688542	-51.041473	602.241006	-40.026996	0.836682	0.000000	-0.392729	0.000008	-0.000027	-0.000004	-0.000001	-0.000000	0.000001	0.000000	0.784146	0.000000	0.000000	0.000000	0.000000
2.689583	-50.902271	600.583123	-40.034241	0.836076	0.000000	-0.392669	0.000005	-0.000012	-0.000002	-0.000000	-0.000000	0.000000	0.000000	0.791225	0.000000	0.000000	0.000000	0.000000
2.690625	-50.759183	598.925711	-40.042226	0.835462	0.000000	-0.392608	0.000003	0.000001	-0.000000	-0.000000	-0.000000	0.000000	0.000000	0.798120	0.000000	0.000000	0.000000	0.000000
2.691667	-50.611308	597.270085	-40.051171	0.834840	0.000000	-0.392545	0.000001	0.000011	0.000001	0.000000	0.000000	-0.000000	0.000000	0.804934	0.000000	0.000000	0.000000	0.000000
2.692708	-50.457820	595.617602	-40.061301	0.834209	0.000000	-0.392481	-0.000001	0.000018	0.000002	0.000000	0.000000	-0.000000	0.000000	0.811774	0.000000	0.000000	0.000000	0.000000
2.693750	-50.297961	593.969650	-40.072829	0.833568	0.000000	-0.392416	-0.000002	0.000021	0.000003	0.000000	0.000000	-0.000000	0.000000	0.818743	0.000000	0.000000	0.000000	0.000000
2.694792	-50.131045	592.327628	-40.085942	0.832918	0.000000	-0.392349	-0.000003	0.000022	0.000003	0.000000	0.000000	-0.000000	0.000000	0.825948	0.000000	0.000000	0.000000	0.000000
2.695833	-49.956449	590.692939	-40.100798	0.832256	0.000000	-0.392281	-0.000003	0.000021	0.000003	0.000000	0.000000	-0.000000	0.000000	0.833490	0.000000	0.000000	0.000000	0.000000
2.696875	-49.773614	589.066971	-40.117509	0.831584	0.000000	-0.392212	-0.000003	0.000018	0.000003	0.000000	0.000000	-0.000000	0.000000	0.841471	0.000000	0.000000	0.000000	0.000000
2.697917	-49.582035	587.451088	-40.136137	0.830900	0.000000	-0.392142	-0.000003	0.000014	0.000002	0.000000	0.000000	-0.000000	0.000000	0.849984	0.000000	0.000000	0.000000	0.000000
2.698958	-49.381260	585.846618	-40.156684	0.830204	0.000000	-0.392072	-0.000002	0.000009	0.000001	0.000000	0.000000	-0.000000	0.000000	0.859120	0.000000	0.000000	0.000000	0.000000
2.700000	-49.170881	584.254847	-40.179090	0.829495	0.000000	-0.392001	-0.000002	0.000005	0.000001	0.000000	0.000000	-0.000000	0.000000	0.868961	0.000000	0.000000	0.000000	0.000000
2.701042	-48.950537	582.677009	-40.203223	0.828775	0.000000	-0.391929	-0.000001	0.000001	0.000000	0.000000	0.000000	-0.000000	0.000000	0.879582	0.000000	0.000000	0.000000	0.000000
2.702083	-48.719903	581.114282	-40.228880	0.828042	0.000000	-0.391857	-0.000000	-0.000002	-0.000000	-0.000000	-0.000000	0.000000	0.000000	0.891048	0.000000	0.000000	0.000000	0.000000
2.703125	-48.478696	579.567781	-40.255786	0.827297	0.000000	-0.391784	0.000000	-0.000004	-0.000001	-0.000000	-0.000000	0.000000	0.000000	0.903414	0.000000	0.000000	0.000000	0.000000
2.704167	-48.226669	578.038562	-40.283590	0.826539	0.000000	-0.391711	0.000000	-0.000006	-0.000001	-0.000000	-0.000000	0.000000	0.000000	0.916722	0.000000	0.000000	0.000000	0.000000
2.705208	-47.963614	576.527609	-40.311868	0.825770	0.000000	-0.391638	0.000001	-0.000006	-0.000001	-0.000000	-0.000000	0.000000	0.000000	0.931004	0.000000	0.000000	0.000000	0.000000
2.706250	-47.689370	575.035840	-40.340125	0.824990	0.000000	-0.391565	0.000001	-0.000006	-0.000001	-0.000000	-0.000000	0.000000	0.000000	0.946276	0.000000	0.000000	0.000000	0.000000
2.707292	-47.403820	573.564097	-40.367799	0.824199	0.000000	-0.391492	0.000001	-0.000005	-0.000001	-0.000000	-0.000000	0.000000	0.000000	0.962541	0.000000	0.000000	0.000000	0.000000
2.708333	-47.106903	572.113147	-40.394263	0.823398	0.000000	-0.391419	0.000001	-0.000004	-0.000001	-0.000000	-0.000000	0.000000	0.000000	0.979787	0.000000	0.000000	0.000000	0.000000
2.709375	-46.798620	570.683671	-40.418833	0.822588	0.000000	-0.391346	0.000001	-0.000003	-0.000000	-0.000000	-0.000000	0.000000	0.000000	0.997988	0.000000	0.000000	0.000000	0.000000
2.710417	-46.479042	569.276264	-40.440775	0.821769	0.000000	-0.391273	0.000001	-0.000002	-0.000000	-0.000000	-0.000000	0.000000	0.000000	1.017102	0.000000	0.000000	0.000000	0.000000
2.711458	-46.148319	567.891420	-40.459311	0.820943	0.000000	-0.391200	0.000000	-0.000001	-0.000000	-0.000000	-0.000000	0.000000	0.000000	1.037072	0.000000	0.000000	0.000000	0.000000
2.712500	-45.806689	566.529527	-40.473631	0.820109	0.000000	-0.391127	0.000000	0.000000	0.000000	-0.000000	-0.000000	0.000000	0.000000	1.057827	0.000000	0.000000	0.000000	0.000000
2.713542	-45.454485	565.190854	-40.482902	0.819270	0.000000	-0.391055	0.000000	0.000001	0.000000	0.000000	0.000000	-0.000000	0.000000	1.079281	0.000000	0.000000	0.000000	0.000000
2.714583	-45.092144	563.875544	-40.486277	0.818426	0.000000	-0.390983	-0.000000	0.000001	0.000000	0.000000	0.000000	-0.000000	0.000000	1.101334	0.000000	0.000000	0.000000	0.000000
2.715625	-44.720212	562.583599	-40.482916	0.817578	0.000000	-0.390911	-0.000000	0.000002	0.000000	0.000000	0.000000	-0.000000	0.000000	1.123874	0.000000	0.000000	0.000000	0.000000
2.716667	-44.339343	561.314873	-40.471992	0.816726	0.000000	-0.390840	-0.000000	0.000002	0.000000	0.000000	0.000000	-0.000000	0.000000	1.146778	0.000000	0.000000	0.000000	0.000000
2.717708	-43.950309	560.069061	-40.452709	0.815872	0.000000	-0.390769	-0.000000	0.000002	0.000000	0.000000	0.000000	-0.000000	0.000000	1.169913	0.000000	0.000000	0.000000	0.000000
